<svg width="447" height="334" viewBox="0 0 447 334" fill="none" xmlns="http://www.w3.org/2000/svg">
<path d="M210 209.5C235 199.5 266.5 150 258 139.5C251 171 301.292 190.1 308 202.5C272 173.5 236.436 208.023 186.5 226.273C230.744 174.667 224.857 141.861 258 69.5C268.5 148.773 357.5 184.5 384 253C276.5 205 179.04 264.539 0.5 333.5C265 246 383 271.273 445.5 306C404 184 279 157.35 266 2C206 68.2271 238.666 173.5 109 273C166.157 246.659 316.5 199.866 356 231C344.5 205 267.5 172 258 102.5C243.566 132.669 242.5 190.5 210 209.5Z" fill="#121111" stroke="black"/>
</svg>
